<?xml version="1.0" standalone="no"?>
<!DOCTYPE svg PUBLIC "-//W3C//DTD SVG 20010904//EN"
 "http://www.w3.org/TR/2001/REC-SVG-20010904/DTD/svg10.dtd">
<svg version="1.0" xmlns="http://www.w3.org/2000/svg"
 width="3300.000000pt" height="2550.000000pt" viewBox="0 0 3300.000000 2550.000000"
 preserveAspectRatio="xMidYMid meet">

<g transform="translate(0.000000,2550.000000) scale(0.100000,-0.100000)"
fill="#000000" stroke="none">
<path d="M0 12750 l0 -12750 16500 0 16500 0 0 12750 0 12750 -16500 0 -16500
0 0 -12750z m17340 955 l0 -385 390 0 390 0 -2 -217 -3 -218 -387 -3 -388 -2
0 -624 c0 -380 4 -644 10 -677 31 -163 142 -260 308 -267 98 -5 150 7 249 55
41 20 75 34 77 32 6 -7 216 -370 216 -374 0 -9 -126 -79 -191 -106 -122 -50
-222 -71 -359 -76 -475 -19 -731 204 -780 678 -6 58 -10 368 -10 730 l0 629
-180 0 -180 0 0 220 0 220 180 0 180 0 0 378 c0 208 3 382 7 385 3 4 111 7
240 7 l233 0 0 -385z m-4980 -350 c325 -71 576 -225 756 -464 109 -146 176
-290 221 -481 20 -86 26 -140 30 -297 l6 -193 -1063 0 -1062 0 7 -37 c12 -67
62 -202 96 -260 47 -80 159 -195 236 -243 152 -96 315 -136 528 -127 163 6
255 27 370 82 94 45 190 123 236 189 l24 36 263 0 262 0 -44 -88 c-122 -243
-344 -448 -600 -553 -318 -131 -701 -143 -1032 -33 -513 171 -844 644 -844
1208 0 349 121 664 344 895 210 217 451 334 791 385 70 10 402 -3 475 -19z
m2945 10 c400 -64 701 -316 833 -696 83 -236 94 -382 90 -1184 l-3 -610 -235
0 -235 0 -5 720 c-6 698 -7 723 -28 802 -70 267 -232 432 -487 499 -108 28
-334 26 -440 -4 -126 -37 -209 -85 -300 -176 -124 -124 -184 -266 -205 -482
-5 -54 -10 -384 -10 -731 l0 -633 -235 0 -235 0 0 1225 0 1225 238 -2 237 -3
-3 -180 -2 -180 26 40 c142 214 309 322 571 369 104 19 316 19 428 1z m4725
-10 c41 -9 122 -32 180 -51 438 -146 743 -517 815 -994 8 -52 15 -161 15 -242
l0 -148 -1061 0 -1061 0 7 -37 c47 -257 226 -476 468 -573 156 -62 410 -77
597 -35 121 27 248 94 328 173 38 37 76 77 84 90 l15 22 261 -2 261 -3 -39
-77 c-62 -124 -116 -197 -230 -308 -120 -119 -228 -191 -374 -251 -193 -80
-397 -115 -616 -106 -223 9 -410 56 -594 150 -336 172 -559 473 -643 867 -25
120 -25 412 0 529 58 271 154 456 329 636 194 202 428 320 733 371 108 18 422
12 525 -11z m2873 -4 l67 -22 0 -224 c0 -124 -1 -225 -3 -225 -1 0 -28 9 -59
20 -122 43 -290 50 -399 16 -100 -30 -163 -70 -249 -156 -64 -63 -96 -106
-127 -166 -56 -107 -98 -236 -125 -380 -20 -111 -22 -158 -27 -729 l-6 -610
-240 0 -240 0 0 1220 0 1220 243 3 242 2 0 -177 0 -177 34 57 c113 187 293
304 534 347 87 16 280 5 355 -19z m1742 9 c290 -50 513 -165 703 -365 185
-194 290 -424 328 -718 23 -176 15 -1409 -10 -1537 -56 -288 -153 -488 -315
-651 -160 -160 -375 -266 -636 -314 -123 -23 -404 -31 -535 -15 -223 25 -435
98 -592 203 -194 129 -371 371 -423 580 l-7 27 238 0 239 0 34 -66 c104 -201
331 -319 651 -339 259 -17 506 50 653 176 66 57 141 166 176 258 53 137 62
204 68 476 l5 250 -42 -65 c-52 -79 -164 -192 -245 -247 -444 -299 -1123 -223
-1515 168 -136 135 -223 279 -284 469 -53 165 -61 224 -61 440 0 215 8 276 60
436 144 441 508 750 985 834 149 26 372 26 525 0z m1915 -687 c0 -373 4 -686
10 -738 39 -343 211 -559 505 -636 104 -27 305 -30 415 -6 140 31 281 115 367
219 56 68 117 191 145 293 22 79 22 93 26 798 l3 717 234 0 235 0 0 -1267 c0
-1373 0 -1357 -55 -1547 -142 -489 -551 -756 -1159 -756 -372 0 -691 116 -903
328 -76 75 -168 206 -203 287 -25 55 -70 184 -70 197 0 4 106 8 234 8 l235 0
38 -72 c57 -110 146 -194 263 -251 129 -63 217 -80 405 -80 186 0 277 17 400
78 70 33 105 58 151 107 152 159 194 310 194 708 l0 225 -41 -64 c-157 -239
-405 -372 -724 -388 -314 -15 -607 83 -812 271 -137 127 -231 278 -292 469
-65 204 -64 189 -68 1005 l-4 742 235 0 236 0 0 -647z"/>
<path d="M11849 12921 c-270 -59 -476 -241 -564 -500 l-24 -71 805 0 c546 0
804 3 804 10 0 26 -65 174 -100 229 -103 159 -265 274 -460 326 -101 27 -350
30 -461 6z"/>
<path d="M19519 12920 c-212 -44 -395 -176 -502 -360 -29 -50 -77 -172 -77
-195 0 -13 101 -15 800 -15 543 0 800 3 800 10 0 26 -65 174 -100 229 -110
171 -287 289 -494 332 -120 25 -309 24 -427 -1z"/>
<path d="M24190 12926 c-155 -33 -294 -106 -404 -213 -96 -95 -166 -216 -207
-355 -27 -94 -38 -328 -19 -432 56 -317 264 -541 579 -623 122 -32 330 -36
456 -9 400 86 642 414 622 846 -17 383 -233 670 -577 771 -95 27 -349 36 -450
15z"/>
</g>
</svg>
