<?xml version="1.0" encoding="utf-8"?>
<!-- Generator: Adobe Illustrator 23.0.1, SVG Export Plug-In . SVG Version: 6.00 Build 0)  -->
<svg version="1.1" id="Layer_1" xmlns="http://www.w3.org/2000/svg" xmlns:xlink="http://www.w3.org/1999/xlink" x="0px" y="0px"
	 viewBox="0 0 512 512" style="enable-background:new 0 0 512 512;" xml:space="preserve">
<style type="text/css">
	.st0{fill:url(#SVGID_1_);}
	.st1{fill:url(#SVGID_2_);}
	.st2{fill:url(#SVGID_3_);}
	.st3{fill:url(#SVGID_4_);}
	.st4{opacity:0.2;fill:#56C7DA;enable-background:new    ;}
	.st5{fill:url(#SVGID_5_);}
	.st6{fill:url(#SVGID_6_);}
</style>
<g>
	
		<linearGradient id="SVGID_1_" gradientUnits="userSpaceOnUse" x1="56" y1="255.8898" x2="456" y2="255.8898" gradientTransform="matrix(1 0 0 -1 0 511.8898)">
		<stop  offset="0" style="stop-color:#95DCF6"/>
		<stop  offset="1" style="stop-color:#507EFF"/>
	</linearGradient>
	<path class="st0" d="M397.6,234c0-1,0-2,0-3c0-59.7-48.6-108.3-108.3-108.3c-39.4,0-75.7,21.6-94.7,55.8
		c-8.2-3.8-17.1-5.8-26.2-5.8c-32.3,0-58.9,24.6-62.1,57.1C76.1,242.9,56,272.8,56,306c0,45.9,37.4,83.3,83.3,83.3h237.5
		c43.7,0,79.2-35.5,79.2-79.2C456,274.1,431.9,243.2,397.6,234z"/>
	
		<radialGradient id="SVGID_2_" cx="245.0533" cy="255.6598" r="10.198" gradientTransform="matrix(16.6667 0 0 -16.6667 -3822.6665 4646.1626)" gradientUnits="userSpaceOnUse">
		<stop  offset="0" style="stop-color:#009ADA"/>
		<stop  offset="1" style="stop-color:#1E88E5;stop-opacity:0"/>
	</radialGradient>
	<path class="st1" d="M397.6,234c0-1,0-2,0-3c0-59.7-48.6-108.3-108.3-108.3c-39.4,0-75.7,21.6-94.7,55.8
		c-8.2-3.8-17.1-5.8-26.2-5.8c-32.3,0-58.9,24.6-62.1,57.1C76.1,242.9,56,272.8,56,306c0,45.9,37.4,83.3,83.3,83.3h237.5
		c43.7,0,79.2-35.5,79.2-79.2C456,274.1,431.9,243.2,397.6,234z"/>
	
		<linearGradient id="SVGID_3_" gradientUnits="userSpaceOnUse" x1="305.0668" y1="235.1883" x2="448.5998" y2="168.2578" gradientTransform="matrix(1 0 0 -1 0 511.8898)">
		<stop  offset="0" style="stop-color:#FFFFFF;stop-opacity:6.000000e-02"/>
		<stop  offset="1" style="stop-color:#FFFFFF;stop-opacity:0"/>
	</linearGradient>
	<circle class="st2" cx="376.8" cy="310.2" r="79.2"/>
	
		<linearGradient id="SVGID_4_" gradientUnits="userSpaceOnUse" x1="199.2251" y1="246.506" x2="78.3918" y2="164.5616" gradientTransform="matrix(1 0 0 -1 0 511.8898)">
		<stop  offset="0" style="stop-color:#FFFFFF;stop-opacity:0"/>
		<stop  offset="1" style="stop-color:#FFFFFF;stop-opacity:6.000000e-02"/>
	</linearGradient>
	<circle class="st3" cx="139.3" cy="306" r="83.3"/>
	<circle class="st4" cx="168.5" cy="235.2" r="62.5"/>
	
		<linearGradient id="SVGID_5_" gradientUnits="userSpaceOnUse" x1="289.3333" y1="389.2231" x2="289.3333" y2="172.5564" gradientTransform="matrix(1 0 0 -1 0 511.8898)">
		<stop  offset="0" style="stop-color:#00ACCD;stop-opacity:0.2"/>
		<stop  offset="0.1274" style="stop-color:#1AB4D2;stop-opacity:0.1745"/>
		<stop  offset="0.4001" style="stop-color:#5CCADF;stop-opacity:0.12"/>
		<stop  offset="0.7929" style="stop-color:#C5ECF4;stop-opacity:4.141600e-02"/>
		<stop  offset="1" style="stop-color:#FFFFFF;stop-opacity:0"/>
	</linearGradient>
	<circle class="st5" cx="289.3" cy="231" r="108.3"/>
	
		<linearGradient id="SVGID_6_" gradientUnits="userSpaceOnUse" x1="96.9506" y1="311.9179" x2="440.7971" y2="151.5796" gradientTransform="matrix(1 0 0 -1 0 511.8898)">
		<stop  offset="0" style="stop-color:#FFFFFF;stop-opacity:0.1"/>
		<stop  offset="1" style="stop-color:#FFFFFF;stop-opacity:0"/>
	</linearGradient>
	<path class="st6" d="M397.6,234c0-1,0-2,0-3c0-59.7-48.6-108.3-108.3-108.3c-39.4,0-75.7,21.6-94.7,55.8
		c-8.2-3.8-17.1-5.8-26.2-5.8c-32.3,0-58.9,24.6-62.1,57.1C76.1,242.9,56,272.8,56,306c0,45.9,37.4,83.3,83.3,83.3h237.5
		c43.7,0,79.2-35.5,79.2-79.2C456,274.1,431.9,243.2,397.6,234z"/>
</g>
</svg>
